<?xml version="1.0" encoding="UTF-8" standalone="no"?>
<svg
   xmlns:dc="http://purl.org/dc/elements/1.1/"
   xmlns:cc="http://creativecommons.org/ns#"
   xmlns:rdf="http://www.w3.org/1999/02/22-rdf-syntax-ns#"
   xmlns:svg="http://www.w3.org/2000/svg"
   xmlns="http://www.w3.org/2000/svg"
   xmlns:sodipodi="http://sodipodi.sourceforge.net/DTD/sodipodi-0.dtd"
   xmlns:inkscape="http://www.inkscape.org/namespaces/inkscape"
   viewBox="0 0 5.295406 5.9991541"
   version="1.1"
   id="svg870"
   sodipodi:docname="icon_cross.svg"
   inkscape:version="0.92.4 5da689c313, 2019-01-14"
   width="5.2954059"
   height="5.9991541">
  <metadata
     id="metadata874">
    <rdf:RDF>
      <cc:Work
         rdf:about="">
        <dc:format>image/svg+xml</dc:format>
        <dc:type
           rdf:resource="http://purl.org/dc/dcmitype/StillImage" />
        <dc:title>icon_arrow02</dc:title>
      </cc:Work>
    </rdf:RDF>
  </metadata>
  <sodipodi:namedview
     pagecolor="#ffffff"
     bordercolor="#666666"
     borderopacity="1"
     objecttolerance="10"
     gridtolerance="10"
     guidetolerance="10"
     inkscape:pageopacity="0"
     inkscape:pageshadow="2"
     inkscape:window-width="1366"
     inkscape:window-height="743"
     id="namedview872"
     showgrid="false"
     inkscape:zoom="94.666667"
     inkscape:cx="1.4931028"
     inkscape:cy="3.0002179"
     inkscape:window-x="0"
     inkscape:window-y="25"
     inkscape:window-maximized="1"
     inkscape:current-layer="svg870"
     fit-margin-top="0"
     fit-margin-left="0"
     fit-margin-right="0"
     fit-margin-bottom="0" />
  <defs
     id="defs864">
    <style
       id="style862">.a{fill:#666;}</style>
  </defs>
  <title
     id="title866">icon_arrow02</title>
  <path
     class="a"
     d="m 2.9872029,3.006756 a 0.29009,0.29009 0 0 1 -0.07319,0.19286 l -2.40239008,2.70166 a 0.29054298,0.29054298 0 0 1 -0.43456,-0.38577 L 2.3082029,3.006506 0.07706282,0.48749597 a 0.29045,0.29045 0 0 1 0.42478,-0.39623 l 0.00978,0.011 L 2.9141229,2.814136 a 0.28942,0.28942 0 0 1 0.07308,0.19262 z"
     id="path868"
     inkscape:connector-curvature="0"
     style="fill:#666666" />
  <path
     inkscape:connector-curvature="0"
     class="a"
     d="m 2.3082029,3.007006 a 0.29009,0.29009 0 0 0 0.07319,0.19286 l 2.4023899,2.70166 a 0.29054298,0.29054298 0 0 0 0.43456,-0.38577 l -2.2311399,-2.509 2.2311399,-2.51901003 a 0.29045,0.29045 0 0 0 -0.42478,-0.39623 l -0.00978,0.011 L 2.3812829,2.814386 a 0.28942,0.28942 0 0 0 -0.07308,0.19262 z"
     id="path868-3"
     style="fill:#666666" />
</svg>
