<?xml version="1.0" encoding="UTF-8" standalone="no"?>
<svg
   xmlns:dc="http://purl.org/dc/elements/1.1/"
   xmlns:cc="http://creativecommons.org/ns#"
   xmlns:rdf="http://www.w3.org/1999/02/22-rdf-syntax-ns#"
   xmlns:svg="http://www.w3.org/2000/svg"
   xmlns="http://www.w3.org/2000/svg"
   xmlns:sodipodi="http://sodipodi.sourceforge.net/DTD/sodipodi-0.dtd"
   xmlns:inkscape="http://www.inkscape.org/namespaces/inkscape"
   viewBox="0 0 5.131799 22.087332"
   version="1.1"
   id="svg14"
   sodipodi:docname="icon_dots.svg"
   width="5.1317992"
   height="22.087332"
   inkscape:version="0.92.4 5da689c313, 2019-01-14">
  <metadata
     id="metadata18">
    <rdf:RDF>
      <cc:Work
         rdf:about="">
        <dc:format>image/svg+xml</dc:format>
        <dc:type
           rdf:resource="http://purl.org/dc/dcmitype/StillImage" />
        <dc:title>icon_mail_sp</dc:title>
      </cc:Work>
    </rdf:RDF>
  </metadata>
  <sodipodi:namedview
     pagecolor="#ffffff"
     bordercolor="#666666"
     borderopacity="1"
     objecttolerance="10"
     gridtolerance="10"
     guidetolerance="10"
     inkscape:pageopacity="0"
     inkscape:pageshadow="2"
     inkscape:window-width="1366"
     inkscape:window-height="743"
     id="namedview16"
     showgrid="false"
     fit-margin-top="0"
     fit-margin-left="0"
     fit-margin-right="0"
     fit-margin-bottom="0"
     inkscape:zoom="101.30297"
     inkscape:cx="2.1138024"
     inkscape:cy="18.455065"
     inkscape:window-x="0"
     inkscape:window-y="25"
     inkscape:window-maximized="1"
     inkscape:current-layer="svg14" />
  <defs
     id="defs4">
    <style
       id="style2">.a{fill:#666;}</style>
  </defs>
  <title
     id="title6">icon_mail_sp</title>
  <path
     class="a"
     d="m 2.5,9.556509 a 1.5,1.5 0 1 1 -1.5,1.5 1.50164,1.50164 0 0 1 1.5,-1.5 m 0,-1 a 2.5,2.5 0 1 0 2.5,2.5 2.5,2.5 0 0 0 -2.5,-2.5 z"
     id="path12"
     inkscape:connector-curvature="0"
     style="fill:#666666;fill-opacity:1" />
  <path
     inkscape:connector-curvature="0"
     class="a"
     d="m 2.6317991,18.087332 a 1.5,1.5 0 1 1 -1.5,1.5 1.50164,1.50164 0 0 1 1.5,-1.5 m 0,-1 a 2.5,2.5 0 1 0 2.5,2.5 2.5,2.5 0 0 0 -2.5,-2.5 z"
     id="path12-3"
     style="fill:#666666;fill-opacity:1" />
  <path
     class="a"
     d="m 2.6317991,1 a 1.5,1.5 0 1 1 -1.5,1.5 1.50164,1.50164 0 0 1 1.5,-1.5 m 0,-1 a 2.5,2.5 0 1 0 2.5,2.5 2.5,2.5 0 0 0 -2.5,-2.5 z"
     id="path12-6"
     inkscape:connector-curvature="0"
     style="fill:#666666;fill-opacity:1" />
  <ellipse
     style="fill:#666666;fill-opacity:1;stroke:none;stroke-opacity:0.95116428"
     id="path4571"
     cx="2.6899507"
     cy="19.599745"
     rx="1.6929415"
     ry="1.7669768" />
  <ellipse
     style="fill:#666666;fill-opacity:1;stroke:none;stroke-opacity:0.95116428"
     id="path4573"
     cx="2.6060441"
     cy="11.115294"
     rx="1.6485204"
     ry="1.8015267" />
  <ellipse
     style="fill:#666666;fill-opacity:1;stroke:none;stroke-opacity:0.95116428"
     id="path4577"
     cx="2.7096937"
     cy="2.5025156"
     rx="1.732427"
     ry="1.7373627" />
</svg>
